<svg width="77" height="77" viewBox="0 0 77 77" fill="none" xmlns="http://www.w3.org/2000/svg">
<circle cx="38.5" cy="38.5" r="38.5" fill="#003832"/>
<path d="M47.832 55.1498L46.4976 44.4748C46.1066 41.3471 43.4478 39 40.2959 39H38.0007H35.7055C32.5536 39 29.8948 41.3471 29.5039 44.4748L28.1695 55.1498C27.8587 57.6367 29.7978 59.8333 32.304 59.8333H38.0007H43.6974C46.2037 59.8333 48.1428 57.6367 47.832 55.1498Z" stroke="#FCFFF4" stroke-width="2" stroke-linecap="round" stroke-linejoin="round"/>
<path d="M38 30.667C41.4518 30.667 44.25 27.8688 44.25 24.417C44.25 20.9652 41.4518 18.167 38 18.167C34.5482 18.167 31.75 20.9652 31.75 24.417C31.75 27.8688 34.5482 30.667 38 30.667Z" stroke="#FCFFF4" stroke-width="2"/>
<path d="M21.3327 36.9163C23.6339 36.9163 25.4993 35.0509 25.4993 32.7497C25.4993 30.4485 23.6339 28.583 21.3327 28.583C19.0315 28.583 17.166 30.4485 17.166 32.7497C17.166 35.0509 19.0315 36.9163 21.3327 36.9163Z" stroke="#FCFFF4" stroke-width="2"/>
<path d="M54.6667 36.9163C56.9679 36.9163 58.8333 35.0509 58.8333 32.7497C58.8333 30.4485 56.9679 28.583 54.6667 28.583C52.3655 28.583 50.5 30.4485 50.5 32.7497C50.5 35.0509 52.3655 36.9163 54.6667 36.9163Z" stroke="#FCFFF4" stroke-width="2"/>
<path d="M21.3331 43.167H20.6961C18.6593 43.167 16.921 44.6395 16.5862 46.6487L15.8917 50.8153C15.4684 53.3551 17.4269 55.667 20.0017 55.667H27.5831" stroke="#FCFFF4" stroke-width="2" stroke-linecap="round" stroke-linejoin="round"/>
<path d="M54.668 43.167H55.3048C57.3417 43.167 59.0801 44.6395 59.4148 46.6487L60.1094 50.8153C60.5326 53.3551 58.5744 55.667 55.9996 55.667C53.5794 55.667 50.6996 55.667 48.418 55.667" stroke="#FCFFF4" stroke-width="2" stroke-linecap="round" stroke-linejoin="round"/>
</svg>
