<svg width="77" height="77" viewBox="0 0 77 77" fill="none" xmlns="http://www.w3.org/2000/svg">
<circle cx="38.5" cy="38.5" r="38.5" fill="#003832"/>
<path d="M53.6635 22.3397C53.7711 22.4471 53.8566 22.5747 53.9149 22.7152C53.9731 22.8556 54.0032 23.0062 54.0032 23.1583C54.0032 23.3104 53.9731 23.461 53.9149 23.6015C53.8566 23.7419 53.7711 23.8695 53.6635 23.9769L44.0735 33.5646H50.5323C50.839 33.5646 51.1331 33.6864 51.3499 33.9032C51.5668 34.1201 51.6886 34.4142 51.6886 34.7208C51.6886 35.0275 51.5668 35.3216 51.3499 35.5384C51.1331 35.7552 50.839 35.8771 50.5323 35.8771H41.2823C40.9757 35.8771 40.6816 35.7552 40.4647 35.5384C40.2479 35.3216 40.1261 35.0275 40.1261 34.7208V25.4708C40.1261 25.1642 40.2479 24.8701 40.4647 24.6532C40.6816 24.4364 40.9757 24.3146 41.2823 24.3146C41.589 24.3146 41.8831 24.4364 42.0999 24.6532C42.3168 24.8701 42.4386 25.1642 42.4386 25.4708V31.9296L52.0262 22.3397C52.1336 22.232 52.2612 22.1466 52.4017 22.0883C52.5422 22.03 52.6928 22 52.8448 22C52.9969 22 53.1475 22.03 53.288 22.0883C53.4285 22.1466 53.5561 22.232 53.6635 22.3397ZM25.451 25.0731C25.3144 24.8975 25.1421 24.7529 24.9455 24.649C24.7488 24.5451 24.5323 24.4843 24.3103 24.4705C24.0882 24.4567 23.8659 24.4903 23.6578 24.5691C23.4498 24.6479 23.261 24.77 23.1038 24.9274L20.7127 27.3208C19.5957 28.4401 19.1841 30.0241 19.672 31.4139C21.6995 37.1654 24.9934 42.3877 29.3105 46.6949C33.6178 51.012 38.8401 54.306 44.5915 56.3334C45.9813 56.8214 47.5654 56.4098 48.6847 55.2928L51.0758 52.9017C51.2332 52.7445 51.3553 52.5556 51.4341 52.3476C51.5128 52.1396 51.5465 51.9172 51.5327 51.6952C51.5189 51.4732 51.458 51.2567 51.3541 51.06C51.2503 50.8633 51.1057 50.691 50.9301 50.5545L45.5952 46.4059C45.4074 46.2607 45.1892 46.1599 44.9569 46.111C44.7246 46.0621 44.4843 46.0665 44.2539 46.1238L39.1895 47.3887C38.5135 47.5565 37.8056 47.547 37.1343 47.361C36.463 47.1751 35.8511 46.819 35.3577 46.3273L29.6782 40.6454C29.1861 40.1523 28.8296 39.5405 28.6432 38.8692C28.4568 38.1979 28.4469 37.4899 28.6145 36.8136L29.8817 31.7493C29.939 31.5189 29.9433 31.2786 29.8945 31.0463C29.8456 30.814 29.7448 30.5958 29.5996 30.408L25.451 25.0731ZM21.3578 23.1838C21.7625 22.779 22.2487 22.4649 22.784 22.2624C23.3194 22.0599 23.8917 21.9736 24.463 22.0092C25.0343 22.0449 25.5915 22.2016 26.0975 22.4691C26.6035 22.7366 27.0469 23.1087 27.3981 23.5607L31.5467 28.8933C32.3075 29.8715 32.5758 31.1457 32.2752 32.3482L31.0102 37.4126C30.9453 37.6749 30.949 37.9495 31.0211 38.21C31.0932 38.4704 31.2312 38.7079 31.4218 38.8995L37.1037 44.5813C37.2955 44.7723 37.5333 44.9105 37.7942 44.9827C38.0551 45.0548 38.3302 45.0583 38.5929 44.9929L43.655 43.728C44.2484 43.5805 44.8676 43.5694 45.466 43.6956C46.0644 43.8217 46.6264 44.0819 47.1098 44.4564L52.4425 48.6051C54.3595 50.0966 54.5353 52.9294 52.8194 54.643L50.4283 57.0341C48.717 58.7454 46.1594 59.4969 43.7752 58.6575C37.6718 56.5129 32.1307 53.0191 27.5646 48.4363C22.9821 43.8708 19.4883 38.3306 17.3433 32.2279C16.5062 29.8461 17.2578 27.2861 18.969 25.5749L21.3578 23.1838Z" fill="#FCFFF4"/>
</svg>
