<svg width="77" height="77" viewBox="0 0 77 77" fill="none" xmlns="http://www.w3.org/2000/svg">
<circle cx="38.5" cy="38.5" r="38.5" fill="#003832"/>
<path d="M30.3172 45.977C37.9453 45.5532 44 39.2341 44 31.5C44 23.4919 37.5081 17 29.5 17C21.4919 17 15 23.4919 15 31.5C15 34.3534 15.8239 37.0141 17.2472 39.2575L16.2225 42.3315L16.2209 42.3361C15.8284 43.5135 15.6321 44.1027 15.7718 44.4947C15.8937 44.8361 16.1641 45.1056 16.5057 45.2274C16.8964 45.3666 17.4813 45.1718 18.6508 44.7818L18.6675 44.7769L21.7426 43.752C23.9859 45.1754 26.6468 45.9995 29.5001 45.9995C29.7743 45.9995 30.0467 45.992 30.3172 45.977ZM30.3172 45.977C30.317 45.9763 30.3174 45.9775 30.3172 45.977ZM30.3172 45.977C32.3012 51.6209 37.6782 55.6672 44.0002 55.6672C46.8536 55.6672 49.5141 54.8421 51.7573 53.4187L54.8315 54.4436L54.8375 54.4448C56.0149 54.837 56.6048 55.0337 56.9968 54.8941C57.3385 54.7723 57.6056 54.5028 57.7274 54.1613C57.8673 53.7686 57.6716 53.179 57.2779 51.9984L56.2532 48.9242L56.5964 48.3553C57.8083 46.2366 58.4988 43.7822 58.4988 41.1667C58.4988 33.1586 52.0081 26.6667 44 26.6667L43.4572 26.6767L43.1834 26.69" stroke="#FCFFF4" stroke-width="2" stroke-linecap="round" stroke-linejoin="round"/>
</svg>
